Coordinates
version=1
nRows=16
nColumns=36
inDegrees=yes

Units are S.I. units (second, meters, Newtons, ...)
If the header above contains a line with 'inDegrees', this indicates whether rotational values are in degrees (yes) or radians (no).

endheader
time	pelvis_tilt	pelvis_list	pelvis_rotation	pelvis_tx	pelvis_ty	pelvis_tz	hip_flexion_r	hip_adduction_r	hip_rotation_r	knee_angle_r	knee_angle_r_beta	ankle_angle_r	subtalar_angle_r	mtp_angle_r	hip_flexion_l	hip_adduction_l	hip_rotation_l	knee_angle_l	knee_angle_l_beta	ankle_angle_l	subtalar_angle_l	mtp_angle_l	lumbar_extension	lumbar_bending	lumbar_rotation	arm_flex_r	arm_add_r	arm_rot_r	elbow_flex_r	pro_sup_r	arm_flex_l	arm_add_l	arm_rot_l	elbow_flex_l	pro_sup_l
      0.99000000	     -1.79503220	      2.08784653	     -1.22045220	      1.10907191	      0.92961808	     -0.22436885	     28.43584061	     -0.09386266	      5.57302662	     22.84953316	      0.39879959	      3.03816019	    -18.37470953	     -7.34204319	     -6.76392425	      6.32495206	      9.66919169	      6.85339203	      0.11961426	     12.37519809	     -6.15624702	     -7.34204319	     -4.30956932	     -1.03993674	     -8.23157612	    -18.40367028	     -4.53927401	    -12.57629265	     24.94240360	     98.70633807	      4.51501365	     -9.52936577	    -19.79774653	     56.74767452	    100.39454202
      1.00000000	     -1.64214790	      2.05425973	     -0.86342267	      1.12093112	      0.92827631	     -0.22368662	     28.05178852	     -0.38141535	      4.96108412	     18.89692369	      0.32981354	      3.79300395	    -15.63150390	     -7.34848090	     -7.81287866	      6.14021107	      9.66099007	      6.73698970	      0.11758265	     12.89696063	     -5.28343990	     -7.34848090	     -4.52727662	     -0.97154375	     -8.64571058	    -18.54383992	     -4.41460883	    -13.59839938	     24.41148656	     98.68607519	      5.07882794	     -9.71318406	    -19.59586254	     57.60506343	    100.35388047
      1.01000000	     -1.62843022	      2.04431965	     -0.48170253	      1.13289659	      0.92661332	     -0.22304383	     27.82066128	     -0.70416338	      4.12971614	     15.25991949	      0.26633584	      4.79479347	    -12.23444029	     -7.35949929	     -8.64332354	      5.96795571	      9.56348408	      6.76975434	      0.11815450	     13.43408399	     -4.50978581	     -7.35949929	     -4.55616527	     -0.90246655	     -9.01660367	    -18.83298537	     -4.27700879	    -14.75393883	     24.19674949	     98.76052386	      5.61203320	     -9.90570395	    -19.22868017	     58.24626762	    100.20346874
      1.02000000	     -1.51804147	      2.00676108	     -0.08698682	      1.14493723	      0.92499370	     -0.22230051	     27.45803333	     -0.97190401	      3.09362551	     11.94567888	      0.20849143	      5.66804172	     -8.93279150	     -7.36779198	     -9.58003891	      5.74712240	      9.56691564	      6.80010778	      0.11868427	     13.80232604	     -3.89056236	     -7.36779198	     -4.69895034	     -0.82083416	     -9.36717513	    -19.01090892	     -4.15813353	    -15.64232410	     23.82063033	     98.77998972	      6.13739720	    -10.08742056	    -18.82403195	     58.86420792	    100.12036091
      1.03000000	     -1.63776974	      1.97141528	      0.30861949	      1.15702908	      0.92302679	     -0.22150819	     27.27887890	     -1.14404555	      2.37203144	      8.89050710	      0.15516862	      5.68485421	     -7.21285337	     -7.36900700	    -10.17053812	      5.55070561	      9.74501043	      7.06173027	      0.12325044	     13.89658696	     -3.75349520	     -7.36900700	     -4.53562657	     -0.75738646	     -9.65177781	    -19.27006944	     -4.11449095	    -15.90931558	     23.46215412	     98.74373993	      6.58545231	    -10.15864051	    -18.50438276	     59.41711470	    100.17443454
      1.04000000	     -1.11950985	      1.76338287	      0.65620365	      1.16948226	      0.92183408	     -0.22062304	     26.50702596	     -1.18450754	      0.56808491	      6.59929577	      0.11517944	      7.12346687	     -2.85755283	     -7.37426263	    -11.54840985	      5.11230403	      9.54156381	      7.12939399	      0.12443140	     14.47582197	     -2.84601362	     -7.37426263	     -5.13544925	     -0.47655085	     -9.96300909	    -19.21160383	     -4.03668011	    -16.85796736	     22.94244546	     98.62786290	      7.01871098	    -10.36629103	    -17.91185272	     59.94765304	    100.15130583
      1.05000000	     -1.00973748	      1.61923915	      1.01564813	      1.18198141	      0.92007481	     -0.21972693	     26.24441243	     -1.22616173	     -1.02646899	      4.95666976	      0.08651021	      8.34374174	      0.51313874	     -7.38160192	    -12.31999848	      4.77077449	      9.37075032	      7.54220891	      0.13163638	     14.97375322	     -2.22505573	     -7.38160192	     -5.19831110	     -0.25052995	    -10.22124139	    -19.37921849	     -3.95461376	    -17.75874893	     22.87235616	     98.54663704	      7.36043402	    -10.46148865	    -17.35475273	     60.19876464	    100.05632780
      1.06000000	     -1.10450922	      1.55549354	      1.29050366	      1.19449500	      0.91804646	     -0.21850463	     26.18470861	     -1.19408073	     -1.75043050	      3.81212863	      0.06653420	      8.56433584	      0.84730294	     -7.38215078	    -12.88878947	      4.54238649	      9.33505489	      7.88783208	      0.13766864	     14.99168617	     -2.27311044	     -7.38215078	     -5.00895193	     -0.19763960	    -10.33352163	    -19.55772239	     -3.89106183	    -17.86875887	     22.65816169	     98.52314245	      7.67411601	    -10.41571789	    -17.16134205	     60.54522820	    100.09388589
      1.07000000	     -0.59000651	      1.09372244	      1.62890362	      1.20738228	      0.91692171	     -0.21748270	     25.35274120	     -0.83272356	     -3.12357984	      3.10402740	      0.05417550	      9.21822444	      3.14034384	     -7.38706885	    -14.09296366	      3.84007026	      9.18218752	      8.34841609	      0.14570735	     15.39626840	     -1.74308569	     -7.38706885	     -5.54825598	      0.41454490	    -10.57323867	    -19.38556303	     -3.93083241	    -18.55617836	     22.19173117	     98.38249336	      7.92826089	    -10.53553366	    -16.37110900	     60.80405747	    100.08012863
      1.08000000	     -0.44295508	      0.76969471	      1.88796277	      1.22039914	      0.91531681	     -0.21622541	     24.98574748	     -0.51708320	     -3.77329146	      3.04416398	      0.05313068	      9.37731978	      3.04784388	     -7.38811739	    -14.84026209	      3.32983702	      9.03342357	      8.90908575	      0.15549288	     15.40504497	     -1.90016004	     -7.38811739	     -5.59479478	      0.81588387	    -10.73431009	    -19.39584720	     -3.96813574	    -18.70483984	     21.99874293	     98.34273100	      8.02408434	    -10.46955837	    -16.08833437	     60.99365293	    100.10214098
      1.09000000	     -0.16835490	      0.40430604	      2.06563743	      1.23372780	      0.91393326	     -0.21489008	     24.50027751	     -0.12793309	     -4.42818008	      3.46713873	      0.06051299	      9.24710886	      2.67867056	     -7.38973014	    -15.76334771	      2.78595352	      8.82659217	      9.41206866	      0.16427159	     15.35075513	     -1.95620711	     -7.38973014	     -5.75531648	      1.27346029	    -10.84854769	    -19.28899469	     -4.04679345	    -18.91931160	     21.72935966	     98.27478895	      8.01491403	    -10.42319117	    -15.68865909	     61.15380048	    100.12599356
      1.10000000	     -0.12110049	      0.16067941	      2.15680441	      1.24739990	      0.91237951	     -0.21344814	     24.17208754	      0.16432905	     -4.42391129	      4.08023752	      0.07121358	      9.06589495	      2.43616674	     -7.39004288	    -16.48665521	      2.41101815	      8.89886864	      9.88233106	      0.17247921	     15.17644397	     -1.97450257	     -7.39004288	     -5.56451359	      1.57872715	    -10.88492541	    -19.31928898	     -4.12019411	    -18.97197490	     21.63158275	     98.25569366	      7.80648586	    -10.24604801	    -15.53921542	     61.15596257	    100.13462007
      1.11000000	      0.22192104	     -0.37689367	      2.28410490	      1.26122214	      0.91126408	     -0.21192211	     23.78747285	      0.75540701	     -5.53132492	      5.40345461	      0.09430807	      8.17671475	      0.92194928	     -7.39122316	    -17.34307824	      1.66376979	      8.29663110	     10.63874298	      0.18568109	     14.67479163	     -2.24628571	     -7.39122316	     -5.75863447	      2.21726458	    -10.92700578	    -19.09102907	     -4.24483026	    -19.12435121	     21.38921048	     98.19337883	      7.62733592	    -10.12034378	    -15.15851203	     61.29098690	    100.17523998
      1.12000000	      0.22333869	     -0.81893591	      2.26655189	      1.27515845	      0.90996001	     -0.21005071	     23.44499802	      1.41886226	     -5.01621763	      6.06766164	      0.10590067	      5.42551674	     -2.43630095	     -7.39635563	    -17.83213494	      1.06316043	      7.99387032	     11.42353428	      0.19937829	     14.04479706	     -2.38546993	     -7.39635563	     -5.49377037	      2.71351264	    -10.87690980	    -18.88906315	     -4.33628293	    -19.32216599	     21.16475200	     98.02332942	      7.22322580	     -9.98576463	    -14.83506776	     61.23560405	    100.22657425
      1.13000000	      0.28222538	     -1.28745950	      2.21179162	      1.28937753	      0.90890086	     -0.20813778	     23.13327243	      2.07383790	     -5.10961942	      6.96492831	      0.12156093	      3.20680289	     -4.32884718	     -7.40173725	    -18.30951124	      0.42371203	      7.49245994	     12.34122461	      0.21539500	     13.28298015	     -2.39146198	     -7.40173725	     -5.27172402	      3.24829916	    -10.80152275	    -18.72563894	     -4.46244712	    -19.29407723	     21.14596329	     97.90464169	      6.73854966	     -9.72097366	    -14.78558763	     61.13345623	    100.29851241
      1.14000000	      0.38774390	     -1.75539735	      2.13660947	      1.30373610	      0.90818023	     -0.20624512	     22.83472777	      2.67458501	     -5.70137665	      7.99177019	      0.13948270	      1.67027229	     -4.68336478	     -7.40278969	    -18.73287312	     -0.22441143	      6.89552311	     13.41506646	      0.23413708	     12.24554464	     -2.38871685	     -7.40278969	     -5.08423686	      3.78648620	    -10.70089623	    -18.51722740	     -4.60670085	    -19.28791254	     21.15916928	     97.88402625	      6.18834457	     -9.43669704	    -14.69366459	     60.93127619	    100.31041139
